<svg xmlns="http://www.w3.org/2000/svg" xmlns:xlink="http://www.w3.org/1999/xlink" version="1.1" x="0px" y="0px" viewBox="0 0 100 125" enable-background="new 0 0 100 100" xml:space="preserve"><g><path fill="#000000" d="M91.91,56.06l-5.03-0.779l0.32-2.021c1.8-1.51,2.979-3.61,3.35-5.99c0.76-4.95-2.37-9.65-7.109-10.89   c-1.4-4.86-5.53-8.64-10.771-9.45c-6-0.92-11.87,2.39-14.22,7.89c-0.54-0.23-1.01-0.37-1.57-0.46c-2.479-0.38-4.87,0.47-6.55,2.12   l-1.08-6.33c1.95-1.77,2.84-4.43,2.39-7.07c-0.72-4.18-4.66-7.02-8.77-6.32c-0.55,0.1-1.02,0.25-1.54,0.48   c-2.42-5.46-8.26-8.69-14.16-7.69c-5.14,0.88-9.15,4.72-10.43,9.59c-4.65,1.3-7.65,6.04-6.81,10.98c0.41,2.37,1.61,4.46,3.41,5.94   l0.35,2.02l-4.94,0.84c-4.05,0.69-6.77,4.6-6.13,8.71l2.19,12.89c0.7,4.101,4.57,6.881,8.61,6.19l4.94-0.84l0.49,2.86   c0.51,2.989,3.19,5.09,6.21,4.569L47,69.54l-1.51,10.83c-0.47,3.07,1.73,5.899,4.73,6.36l25.594,3.939   c3.07,0.48,5.918-1.66,6.388-4.66l0.449-2.859l5.035,0.77c4.109,0.64,7.981-2.2,8.621-6.31l1.991-12.92   C98.859,60.56,96.03,56.69,91.91,56.06z M56.37,37.21c1.18,0.19,2.24,0.78,3.02,1.68c0.49,0.58,1.41,0.65,1.98,0.17   c0.58-0.49,0.649-1.41,0.16-1.98c-0.24-0.25-0.49-0.51-0.74-0.76c1.77-4.51,6.57-7.35,11.45-6.59c5.1,0.78,8.87,5.08,8.93,10.23   c0.021,0.79,0.64,1.39,1.43,1.37s1.391-0.64,1.37-1.43c0.021-0.14-0.029-0.29-0.01-0.43c2.74,1.28,4.35,4.24,3.88,7.31   c-0.26,1.68-1.14,3.19-2.45,4.27c-0.729,0.101-3.1,0.16-7.81-0.35c-0.69-0.1-1.42,0.43-1.54,1.2l-0.71,4.6   c-0.061,0.42-0.25,0.75-0.58,0.98c-0.32,0.239-0.69,0.329-1.11,0.26c-0.84-0.13-1.43-0.931-1.3-1.771l0.69-4.47   c0.05-0.35-0.03-0.72-0.271-1.04c-0.229-0.32-0.56-0.51-0.91-0.57c-0.909-0.14-1.119-0.17-1.81-0.28l-0.84-0.13   C56.18,47.26,52.6,45.85,52.54,45.84c-0.28-0.21-0.53-0.45-0.74-0.71c-0.76-0.89-1.18-2.04-1.18-3.21c0-0.24,0.02-0.49,0.06-0.73   c0.06-0.34,0.16-0.66,0.29-0.97C51.81,38.18,54,36.85,56.37,37.21z M89.07,64.77L87.51,74.89l-3.56-0.55l1.56-10.12L89.07,64.77z    M12.59,29.6c-0.52-3.07,1.02-6.05,3.69-7.37c0.02,0.14-0.02,0.29,0,0.43c-0.01,0.79,0.59,1.4,1.37,1.42   c0.78,0.01,1.38-0.6,1.39-1.39c-0.03-5.15,3.6-9.5,8.61-10.35c4.8-0.82,9.57,1.95,11.4,6.44c-0.24,0.25-0.48,0.51-0.72,0.76   c-0.46,0.58-0.38,1.5,0.2,1.98c0.57,0.47,1.48,0.39,1.94-0.19c0.76-0.92,1.79-1.52,2.95-1.72c2.68-0.46,5.17,1.34,5.68,3.9   c0.3,1.74-0.38,3.57-1.74,4.67c-0.07,0.01-7.39,2.32-16.05,4.01c-7.69,1.5-16.23,1.64-16.23,1.64   C13.77,32.76,12.88,31.27,12.59,29.6z M15.21,46.99l1.72,10.1l-3.5,0.59l-1.72-10.09L15.21,46.99z M13.06,64.2   c-2.6,0.439-5.03-1.37-5.47-3.94L5.36,47.17c-0.45-2.65,1.32-5.1,3.85-5.53l4.94-0.85l0.6,3.48l-3.78,0.65   c-1.3,0.22-2.21,1.52-1.98,2.85l1.83,10.72c0.22,1.319,1.51,2.25,2.81,2.029l3.78-0.649L18,63.35L13.06,64.2z M24.9,70.759   c-1.51,0.26-2.96-0.81-3.22-2.35l-0.07,0.006l-5.39-31.618c1.2,0.01,7.79-0.133,15.16-1.483c8.18-1.5,15.4-3.882,15.4-3.882   l1.47,8.629c-0.06,0.24-0.11,0.489-0.15,0.739c-0.31,1.98,0.15,3.959,1.23,5.56c0.37,0.54,0.608,0.981,1.118,1.421l-1.347,8.822   l-3.242-18.999c-0.38-2.228-2.46-3.664-4.586-3.301c-2.126,0.362-3.611,2.407-3.231,4.635l0.63,3.691   c0.131,0.766,0.854,1.287,1.608,1.158c0.755-0.128,1.266-0.86,1.135-1.626l-0.63-3.691c-0.119-0.695,0.334-1.347,1.02-1.463   c0.687-0.117,1.33,0.348,1.448,1.042l3.707,21.726c0.118,0.693-0.335,1.344-1.021,1.461c-0.686,0.117-1.328-0.346-1.447-1.041   l-2.281-13.369c-0.131-0.766-0.855-1.287-1.61-1.158c-0.755,0.128-1.264,0.859-1.133,1.626l2.292,13.438   c0.38,2.229,2.459,3.664,4.585,3.301c0.736-0.125,1.246-0.354,1.768-0.805l0,0l-0.621,3.679L24.9,70.759z M79.4,85.72l-0.07-0.01   c-0.23,1.53-1.68,2.6-3.22,2.36L50.63,84.14c-1.53-0.239-2.6-1.689-2.36-3.22l1.83-11.87l0.43-2.8l1.041-6.75l1.279-8.25l0.33-2.17   c2.19,0.63,6.73,1.76,15.58,3.26l0.83,0.13c0.21,0.03,0.351,0.061,0.49,0.08l-0.19,1.25c-0.46-0.28-0.93-0.5-1.479-0.58   c-2.17-0.34-4.25,1.13-4.601,3.36l-3.39,21.99c-0.32,2.1,1.23,4.12,3.39,4.46c2.16,0.33,4.25-1.13,4.591-3.37l1.3-8.38   c0.109-0.761-0.42-1.49-1.19-1.61c-0.76-0.12-1.49,0.42-1.609,1.18L65.6,79.3c-0.109,0.7-0.75,1.17-1.449,1.061   c-0.7-0.101-1.17-0.75-1.091-1.311l3.391-21.92c0.1-0.689,0.75-1.17,1.45-1.06c0.689,0.109,1.17,0.75,1.06,1.449l-1.34,8.66   c-0.12,0.761,0.42,1.49,1.18,1.61c0.771,0.12,1.5-0.41,1.62-1.18l1.03-6.7c0.439,0.35,0.979,0.58,1.609,0.67l-3,19.479   c-0.34,2.16,1.131,4.25,3.36,4.591c2.17,0.34,4.25-1.131,4.59-3.36l0.78-5.03c0.12-0.77-0.41-1.49-1.18-1.609   c-0.771-0.12-1.49,0.409-1.61,1.18l-0.78,5.03c-0.1,0.689-0.75,1.17-1.45,1.06c-0.699-0.11-1.17-0.75-1.06-1.45l3.14-20.38   c0.16-0.12,0.311-0.17,0.48-0.29c0.72-0.53,1.27-1.31,1.54-2.12C78.53,58,78.52,59,78.55,59.29l-1.8,11.65   c-0.12,0.77,0.41,1.5,1.18,1.609c0.771,0.12,1.49-0.41,1.61-1.18l1.81-11.72l0.011-0.07c0.14-1.34-0.38-3.99-2.931-4.6l0.181-1.19   c2.6,0.26,4.46,0.26,5.68,0.24L79.4,85.72z M95.51,64.26L93.48,77.38c-0.4,2.58-2.82,4.43-5.48,4.021l-5.02-0.78l0.539-3.49   l3.83,0.59c1.33,0.21,2.62-0.739,2.82-2.06l1.66-10.75c0.21-1.33-0.74-2.62-2.061-2.82l-3.84-0.6L86.46,58l5.03,0.78   C94.07,59.18,95.92,61.61,95.51,64.26z"/><path fill="#000000" d="M59.71,63.24c-0.76-0.12-1.49,0.41-1.61,1.18l-2.06,13.41c-0.11,0.689-0.76,1.17-1.45,1.06   c-0.7-0.109-1.17-0.75-1.07-1.449l3.36-21.78c0.11-0.7,0.75-1.17,1.45-1.061c0.7,0.101,1.17,0.75,1.06,1.44l-0.569,3.71   c-0.11,0.76,0.42,1.49,1.18,1.61c0.77,0.109,1.5-0.41,1.62-1.181l0.57-3.699c0.34-2.24-1.2-4.261-3.37-4.601   c-2.16-0.33-4.25,1.14-4.59,3.37l-0.28,1.84l-1.73,11.22l-1.36,8.79c-0.33,2.16,1.13,4.25,3.371,4.591   c2.159,0.34,4.239-1.131,4.59-3.36l2.069-13.48C61.01,64.09,60.48,63.36,59.71,63.24z"/><path fill="#000000" d="M36.57,40.273c-0.38-2.228-2.46-3.664-4.586-3.301c-2.126,0.362-3.611,2.407-3.231,4.635l0.63,3.691   c0.131,0.766,0.854,1.287,1.608,1.158c0.755-0.128,1.266-0.86,1.135-1.626l-0.63-3.691c-0.119-0.695,0.334-1.347,1.02-1.463   c0.687-0.117,1.33,0.348,1.448,1.042l3.707,21.725c0.118,0.693-0.335,1.344-1.021,1.461c-0.686,0.117-1.328-0.346-1.447-1.041   l-2.281-13.368c-0.131-0.766-0.855-1.287-1.61-1.158c-0.755,0.128-1.264,0.86-1.133,1.625L32.471,63.4   c0.38,2.229,2.459,3.664,4.585,3.301c2.195-0.373,3.601-2.477,3.232-4.635L36.57,40.273z"/><path fill="#000000" d="M27.154,40.773c-0.38-2.228-2.46-3.664-4.586-3.301c-2.126,0.362-3.611,2.407-3.231,4.635l0.63,3.691   c0.131,0.766,0.854,1.287,1.608,1.158c0.755-0.128,1.266-0.86,1.135-1.626l-0.63-3.691c-0.119-0.695,0.334-1.347,1.02-1.463   c0.687-0.117,1.33,0.348,1.448,1.042l3.707,21.725c0.118,0.693-0.335,1.344-1.021,1.461c-0.686,0.117-1.328-0.346-1.447-1.041   l-2.281-13.368c-0.131-0.767-0.855-1.287-1.61-1.158c-0.755,0.128-1.264,0.86-1.133,1.625L23.055,63.9   c0.38,2.229,2.459,3.664,4.585,3.301c2.195-0.373,3.601-2.477,3.232-4.635L27.154,40.773z"/><path fill="#000000" d="M51.206,16.471c0.099,0.02,0.198,0.03,0.296,0.03c0.7,0,1.326-0.493,1.469-1.207l2-10   c0.163-0.812-0.364-1.603-1.177-1.765c-0.806-0.164-1.603,0.364-1.765,1.177l-2,10C49.867,15.518,50.394,16.309,51.206,16.471z"/><path fill="#000000" d="M59.09,18.65c0.243,0.146,0.51,0.216,0.774,0.216c0.508,0,1.004-0.258,1.285-0.725l5.27-8.731   c0.428-0.709,0.2-1.631-0.509-2.059c-0.71-0.428-1.632-0.201-2.06,0.509l-5.27,8.731C58.153,17.3,58.381,18.222,59.09,18.65z"/><path fill="#000000" d="M64.332,23.066c0.275,0.491,0.785,0.767,1.31,0.767c0.249,0,0.501-0.062,0.732-0.192l8.859-4.967   c0.723-0.405,0.98-1.319,0.575-2.042c-0.406-0.724-1.323-0.979-2.042-0.575l-8.859,4.967   C64.185,21.429,63.927,22.343,64.332,23.066z"/><path fill="#000000" d="M41.713,84.342c-0.826-0.055-1.538,0.578-1.589,1.405l-0.639,10.411c-0.051,0.827,0.578,1.538,1.405,1.589   c0.031,0.002,0.063,0.003,0.093,0.003c0.786,0,1.447-0.612,1.496-1.408l0.639-10.411C43.169,85.104,42.541,84.393,41.713,84.342z"/><path fill="#000000" d="M33.652,81.665c-0.69-0.461-1.622-0.274-2.081,0.416l-6.562,9.837c-0.459,0.688-0.273,1.62,0.416,2.08   c0.256,0.171,0.545,0.252,0.831,0.252c0.485,0,0.96-0.234,1.25-0.668l6.562-9.837C34.527,83.057,34.341,82.125,33.652,81.665z"/><path fill="#000000" d="M27.486,75.969c-0.476-0.678-1.412-0.843-2.089-0.367l-9.508,6.664c-0.679,0.476-0.843,1.411-0.368,2.09   c0.292,0.416,0.757,0.639,1.23,0.639c0.297,0,0.598-0.088,0.859-0.271l9.508-6.664C27.797,77.583,27.961,76.647,27.486,75.969z"/></g></svg>